<?xml version="1.0" encoding="UTF-8"?>
<!DOCTYPE svg PUBLIC "-//W3C//DTD SVG 1.1//EN" "http://www.w3.org/Graphics/SVG/1.1/DTD/svg11.dtd">
<!-- Creator: CorelDRAW -->
<svg xmlns="http://www.w3.org/2000/svg" xml:space="preserve" width="190.149mm" height="248.489mm" version="1.1" style="shape-rendering:geometricPrecision; text-rendering:geometricPrecision; image-rendering:optimizeQuality; fill-rule:evenodd; clip-rule:evenodd"
viewBox="0 0 19000.67 24830.26"
 xmlns:xlink="http://www.w3.org/1999/xlink"
 xmlns:xodm="http://www.corel.com/coreldraw/odm/2003">
 <defs>
  <style type="text/css">
   <![CDATA[
    .fil8 {fill:none}
    .fil6 {fill:#FEFEFE}
    .fil7 {fill:#0097DC}
    .fil12 {fill:#0097DC}
    .fil2 {fill:#01924F}
    .fil0 {fill:#62CDF7}
    .fil5 {fill:#D62154}
    .fil11 {fill:#EC1F24}
    .fil13 {fill:#FEFEFE;fill-rule:nonzero}
    .fil9 {fill:#373435;fill-rule:nonzero}
    .fil1 {fill:#373435;fill-rule:nonzero}
    .fil4 {fill:#01924F;fill-rule:nonzero}
    .fil3 {fill:#67B082;fill-rule:nonzero}
    .fil10 {fill:#FEF200;fill-rule:nonzero}
   ]]>
  </style>
    <clipPath id="id0">
     <path d="M9500.34 19458.68c-1777.45,-857.78 -3206.93,-2391.44 -3574.51,-5867.55 -35.27,-2011.18 -719.28,-2776.71 -1703.88,-3061.84 885.09,-1080.33 1945.83,-1456.77 3276.52,-1207.45 177.69,-1343.6 700.28,-2325.15 1800.27,-2969.56 1086.52,538.72 1917.73,1575.95 2214.26,2969.56 1330.69,-249.31 2315.14,180.62 3200.22,1260.95 -841.75,581.62 -2077.45,1366.42 -1951.01,3067.63 214.6,2683.71 -1635.36,4939.71 -3261.87,5808.26z"/>
    </clipPath>
 </defs>
 <g id="Camada_x0020_1">
  <metadata id="CorelCorpID_0Corel-Layer"/>
  <g id="_2353333249904">
   <ellipse class="fil0" cx="9500.34" cy="12415.13" rx="9411.21" ry="12326"/>
   <path class="fil1" d="M9500.34 24830.26c-2628.05,0 -5005.73,-1393.08 -6725.41,-3645.37 -1714.49,-2245.5 -2774.93,-5346.17 -2774.93,-8769.76 0,-3423.59 1060.43,-6524.27 2774.93,-8769.76 1719.68,-2252.29 4097.36,-3645.37 6725.41,-3645.37 2628.05,0 5005.73,1393.08 6725.41,3645.37 1714.49,2245.5 2774.93,5346.17 2774.93,8769.76 0,3423.59 -1060.43,6524.27 -2774.93,8769.76 -1719.68,2252.29 -4097.36,3645.37 -6725.41,3645.37zm-6584.04 -3753.31c1686.5,2208.83 4014.43,3575.03 6584.04,3575.03 2569.61,0 4897.55,-1366.2 6584.04,-3575.03 1691.68,-2215.63 2738.03,-5277.96 2738.03,-8661.82 0,-3383.86 -1046.35,-6446.2 -2738.03,-8661.82 -1686.5,-2208.83 -4014.43,-3575.03 -6584.04,-3575.03 -2569.61,0 -4897.55,1366.2 -6584.04,3575.03 -1691.68,2215.63 -2738.03,5277.96 -2738.03,8661.82 0,3383.86 1046.35,6446.2 2738.03,8661.82z"/>
   <path class="fil2" d="M5188.6 13408.08c651.03,1348.55 1004.54,2697.09 461.52,4045.64 -1277.92,-1348.55 -1139.54,-2697.09 -461.52,-4045.64z"/>
   <path class="fil3" d="M5234.36 13386.01c327.59,678.57 580.39,1357.56 683.1,2037.34 103.15,682.7 55.05,1365.75 -220.18,2049.28 -10.44,26.04 -40.02,38.68 -66.06,28.25 -7.39,-2.97 -13.7,-7.47 -18.72,-13 -647.48,-683.59 -936.29,-1368.38 -977.35,-2053.99 -40.98,-684.14 165.34,-1366.75 508.09,-2048.48 12.53,-25.05 43,-35.2 68.05,-22.68 10.44,5.23 18.29,13.56 22.99,23.32l0.08 -0.04zm582.41 2052.46c-96.3,-637.43 -327.45,-1275.59 -628.97,-1914.13 -307.44,635.53 -489.12,1270.27 -451.19,1903.59 38.52,643.1 304.13,1286.99 895.54,1932 241.84,-640.07 281.45,-1280.62 184.62,-1921.46z"/>
   <path class="fil2" d="M4201.42 14331.83c-649.85,-608.71 -536.27,-1539.79 410.37,-2250.02 308.17,810.04 187.07,1562.17 -410.37,2250.02z"/>
   <path class="fil3" d="M4166.62 14368.82c-65.38,-61.21 -123.51,-125.96 -174.28,-193.62 -198.56,-264.65 -280.67,-570.06 -242.31,-884.92 38.06,-312.46 194.85,-633.39 474.25,-931.68 102.19,-109.1 221.14,-215.42 357.06,-317.39 22.42,-16.81 54.22,-12.27 71.04,10.15 2.92,3.89 5.19,8.05 6.83,12.38l0.13 -0.05c157.39,413.72 205.06,813.22 137.01,1197.7 -68.04,384.35 -251.55,752.54 -556.53,1103.65 -18.35,21.2 -50.42,23.52 -71.63,5.18l-1.58 -1.4zm-93.11 -254.52c36.92,49.21 78.41,97.08 124.43,143.34 271.58,-324.26 435.94,-662.4 498.14,-1013.77 61.28,-346.21 23.56,-706.34 -108.26,-1079.67 -108.29,85.22 -204.76,173.55 -289.5,264.03 -263.9,281.73 -411.72,582.69 -447.21,873.98 -35.19,288.91 40.18,569.18 222.41,812.08z"/>
   <path class="fil2" d="M13477.22 17443c197.63,-314.85 426.44,-573.22 739.14,-679.52 342.84,-121.04 566.42,-277.84 549.84,-506.7 15.01,-221.26 46.72,-450.11 29.66,-711.56 84.04,-245.66 9.38,-534.2 -172.5,-851.72 -73.75,-260.54 -158.02,-521.09 -264.13,-781.63 -87.73,-179.79 -182.2,-209.27 -284.8,-57.1 -38.01,56.39 -58.56,112.82 -65.68,180.45 -20.65,196.09 -93.13,356.73 -223.61,477.69 -189.9,95.56 -183.85,288.05 -32.35,552.53 158.62,284.28 22.94,429.51 -294.95,488.65 -41.15,7.65 -72.33,36.2 -83.52,76.54 -127.89,460.88 162.12,1339.33 102.9,1812.36z"/>
   <path class="fil3" d="M13535.83 17263.62c72,-101.06 148.76,-193.95 232.4,-274.99 126.08,-122.16 267.49,-217.32 431.23,-273.1 165.89,-58.57 302.09,-125.09 393.58,-203.58 84.24,-72.27 129.42,-154.96 122.42,-251.6 -0.19,-2.83 -0.15,-5.62 0.1,-8.34 3.81,-55.93 8.15,-106.95 12.55,-158.69 14.54,-170.96 29.75,-349.74 17.02,-544.92 -0.45,-7.1 0.59,-13.95 2.84,-20.25 38.63,-113.45 40.52,-237.74 11.62,-371.09 -29.74,-137.19 -91.97,-283.91 -180.4,-438.28 -2.55,-4.45 -4.34,-9.12 -5.44,-13.87 -36.66,-129.44 -75.73,-258.27 -118.47,-386.1 -42.68,-127.68 -89.65,-256.22 -142.39,-385.85 -36.67,-74.86 -70.65,-117.5 -101.62,-124.58 -25.15,-5.74 -56.51,18.28 -94.65,74.84 -16.81,24.94 -29.62,49.5 -38.85,74.87 -9.33,25.65 -15.36,52.7 -18.48,82.31 -10.92,103.75 -35.65,198.31 -74.99,283.14 -39.81,85.83 -94.38,161.56 -164.53,226.58 -3.96,3.68 -8.33,6.6 -12.96,8.78 -75.83,38.57 -112.55,95.6 -115.12,168.72 -2.93,83.06 34.13,188.35 105.29,312.55 0.71,1.25 1.36,2.52 1.97,3.8 88.07,159.41 91.77,283.41 27.06,378.68 -62.18,91.52 -186.74,149.35 -359,181.39 -11.04,2.05 -20.57,6.74 -27.93,13.49 -7.29,6.68 -12.78,15.77 -15.8,26.63 -67.65,243.79 -11.73,620.06 42.55,985.33 33.42,224.98 66.25,445.9 70.02,634.13zm303.23 -202.18c-116.99,113.34 -220.58,252.42 -316.88,405.48 -9.61,18.05 -29.62,29.24 -51.12,26.61 -27.91,-3.4 -47.76,-28.79 -44.37,-56.7 25.71,-205.37 -17.39,-495.37 -61.56,-792.63 -55.79,-375.44 -113.26,-762.2 -39.75,-1027.1 8.17,-29.46 23.88,-54.82 45.24,-74.39 21.32,-19.54 47.97,-32.96 78.07,-38.56 145.62,-27.09 247.86,-71.47 293.34,-138.41 42.17,-62.06 35.3,-150.89 -31.98,-272.7l-1.43 -2.34c-80.35,-140.26 -122.06,-263.48 -118.42,-366.68 3.9,-110.47 56.66,-196 165.31,-253.01 57.93,-54.86 103.2,-118.38 136.46,-190.08 34.67,-74.75 56.52,-158.57 66.25,-250.9 4,-38.01 11.83,-73.03 24.04,-106.57 12.31,-33.85 28.79,-65.71 49.99,-97.16 64.45,-95.6 131.63,-132.93 201.3,-117.03 63.66,14.53 120.6,76.12 171.43,180.29l1.4 3.18c53.03,130.23 100.99,261.6 145.19,393.81 43.39,129.78 82.56,258.66 118.94,386.89 91.87,161.25 156.85,315.81 188.56,462.1 32.02,147.73 30.19,287.03 -11.86,416.32 12.17,199.54 -3.06,378.52 -17.63,549.79 -4.61,54.04 -9.14,107.32 -12.42,155.09 8.28,130.63 -49.95,239.63 -158.07,332.39 -101.86,87.38 -248.86,159.8 -425.81,222.27l-0.6 0.19c-148.69,50.55 -277.86,137.67 -393.61,249.82z"/>
   <path class="fil2" d="M14681.73 13706.5c212.27,-157.23 321.36,-456.86 353.94,-862.06 3.4,-218.87 -59.98,-375.91 -250.66,-415.07 -132.97,-245.27 -265.93,-490.54 -398.9,-735.81 -115.05,-168.83 -211.07,-172.57 -283,32.34 -8.08,168.9 -16.18,337.82 -24.26,506.72 203.9,323.25 102.61,581.47 -132.06,811.27 179.35,400.39 433.39,596.45 734.94,662.61z"/>
   <path class="fil3" d="M14669.83 13651.5c89.3,-72.2 158.18,-174 209.09,-301.74 55.83,-140.04 90.1,-311.37 106.01,-509.3l0.05 -0.58c1.17,-99.26 -12.15,-183.46 -46.43,-245.9 -32.07,-58.42 -84.52,-98.62 -163.69,-114.87 -15.3,-3.12 -27.57,-12.82 -34.47,-25.54l-0.15 0.08 -398.1 -734.35c-45.79,-66.63 -82.82,-101.03 -109.92,-98.99 -24.97,1.88 -51.18,39.05 -78.74,115.48l-23.14 483.5c102.68,168.67 127.78,322.21 96.69,464.74 -29.33,134.41 -108.52,256.49 -219.39,370.7 83.52,177.24 182.42,310.51 294.01,407.39 110.56,95.98 234.2,156.62 368.17,189.37zm303.4 -264.34c-60.87,152.76 -145.84,273.65 -258.41,357.99 -11.66,9.97 -27.69,14.59 -43.84,11.09 -158.84,-34.84 -305.28,-104.01 -435.78,-217.31 -128.74,-111.8 -241.29,-266.2 -333.99,-472.63 -9.41,-19.12 -6.06,-42.88 9.96,-58.64 110.61,-108.31 189.54,-222.17 216.37,-345.12 26.36,-120.84 2.45,-253.45 -91.37,-402.41 -5.56,-8.58 -8.57,-18.93 -8.05,-29.92l24.25 -506.72c0.23,-4.77 1.14,-9.58 2.79,-14.32 43.49,-123.86 100.45,-185.14 169.5,-190.35 66.62,-5.03 133.83,44.85 201.51,143.26 1.74,2.22 3.32,4.62 4.71,7.17l388.12 715.93c98.42,25.93 165.66,81.42 208.69,159.83 43.31,78.88 60.16,179.86 58.77,296.1 0.15,2.39 0.14,4.82 -0.05,7.27 -16.66,207.27 -53.24,388.38 -113.18,538.75z"/>
   <path class="fil2" d="M10808.94 19372.91c-35.4,-413.58 554.28,-1030.17 1208.88,-657.65 248.85,-808.44 513.07,-1578.11 1080.79,-1582.13 157.39,8.02 256.69,41.37 398.9,353.07 -11.23,243.3 85.81,274.18 261.44,150.94 185.71,-205.49 352.75,-414.94 506.28,-629.38 30.33,-42.37 64.06,-73.06 109.1,-99.24 469.8,-273.21 652.13,-173.15 702.6,119.48 13.35,206.95 -18.74,394.97 -91.63,566.01 -331.78,355.44 -440.86,768.48 -355.77,1231.74 -40.31,365.25 -291.07,403.11 -622.6,315.34 -490.38,-182.52 -1008.29,-217.89 -912.01,375.32 11.92,73.4 6.45,138.88 -17.59,209.26 -132.95,389.45 -413.99,454.31 -845.34,305.98 -629.2,-192.03 -1343.71,-417.3 -1423.06,-658.74z"/>
   <path class="fil3" d="M10758.2 19377.09c-9.99,-116.85 24.91,-247.34 94.35,-369.38 64.74,-113.75 160.03,-220.9 277.12,-302.86 117.73,-82.41 257.51,-139.5 410.55,-152.59 140.5,-12.03 291.86,12.97 447.17,89.41 119.78,-386.61 244.79,-760.62 407.07,-1044.4 176.85,-309.23 398.12,-512.72 703.94,-514.87l2.78 0.06 0.01 -0.06c88.09,4.49 160.48,16.49 233.59,73.2 68.79,53.35 134.04,145.47 208.88,309.51 3.45,7.55 4.9,15.52 4.55,23.28 -4.56,99.33 7.11,152.34 32.82,165.38 25.67,13.02 75.09,-7.14 144.52,-55.33 89.95,-99.7 176.11,-201.19 259.01,-304.46 82.76,-103.09 162.34,-208.38 239.29,-315.86 17.14,-23.94 35.5,-44.82 56.19,-63.64 20.49,-18.64 43.07,-34.94 68.83,-49.92 247.29,-143.8 422.8,-188.41 546.15,-157.81 133.89,33.22 203.29,145.9 232.06,312.72 0.41,2.39 0.64,4.77 0.71,7.12 6.74,106.56 1.82,208.51 -14.19,306.06 -16.14,98.41 -43.53,192.09 -81.54,281.27 -2.43,5.71 -5.78,10.73 -9.8,14.99 -160.11,171.61 -266.37,356.66 -322.22,554.28 -55.98,198.06 -61.69,409.52 -20.56,633.41 0.91,4.98 1.06,9.92 0.53,14.72l0.06 0c-22.51,204.01 -106.76,317.8 -233.72,369.14 -120.64,48.78 -276.68,36.28 -452.34,-10.22 -2.54,-0.67 -4.99,-1.52 -7.32,-2.53 -221.58,-82.22 -447.25,-133.5 -612.81,-106.63 -53.29,8.64 -99.7,25.41 -136.65,51.98 -35.68,25.65 -63.4,61.2 -80.95,108.34 -24.25,65.18 -29.73,152.7 -11.2,266.85 6.67,41.12 8.48,79.9 5.29,118.11 -3.23,38.42 -11.46,76.38 -24.86,115.63 -72.12,211.24 -186.4,335.13 -343,386.69 -152.21,50.1 -340.89,28.87 -567,-48.87l-2.28 -0.85c-314.8,-96.09 -650.51,-200.47 -918.22,-311.19 -280.03,-115.8 -489.22,-241.72 -534.39,-379.14 -1.25,-3.84 -2.01,-7.7 -2.33,-11.55l-0.07 0.01zm182.69 -319.24c-58.19,102.25 -88.19,209.72 -81.69,304.75 38.79,102.31 224.42,207.88 474.37,311.26 264.4,109.34 597.16,212.79 909.24,308.06 1.9,0.41 3.81,0.94 5.7,1.59 205.24,70.57 372.77,91.07 502.14,48.47 124.99,-41.15 217.72,-144.43 278.54,-322.63 10.62,-31.12 17.15,-61.11 19.69,-91.35 2.56,-30.48 1.15,-61.15 -4.09,-93.44 -21.49,-132.39 -13.93,-237.17 16.38,-318.59 24.96,-67.07 64.97,-118.05 116.76,-155.28 50.51,-36.31 111.37,-58.82 179.62,-69.9 184.64,-29.97 427.99,24.08 663.97,111.6 155.15,40.91 289.67,53.13 387.02,13.76 90.05,-36.42 150.88,-122.21 169.65,-279 -42.42,-236.49 -35.62,-460.6 23.96,-671.43 59.6,-210.9 171.7,-407.79 339.82,-589.72 33.11,-79.4 57.07,-162.57 71.36,-249.68 14.69,-89.47 19.22,-183.4 13.07,-282.03 -21.86,-124.54 -68.84,-207.33 -155.65,-228.87 -97.87,-24.27 -248.43,17.69 -470.94,147.07 -19.27,11.21 -36.1,23.35 -51.31,37.19 -15,13.64 -28.69,29.31 -41.87,47.71 -76.58,106.96 -157.29,213.63 -242.87,320.24 -83.38,103.87 -171.38,207.39 -264.69,310.74 -3.01,3.88 -6.65,7.37 -10.86,10.34 -104.01,73 -189.5,97.94 -252.92,65.77 -62.07,-31.49 -93.32,-111.72 -88.98,-248.18 -65.09,-140.65 -119.23,-218.17 -173.58,-260.32 -51.25,-39.74 -107.03,-48.51 -175.99,-52.07 -260.84,2.81 -454.95,185.93 -613.92,463.9 -165.64,289.61 -292.78,680.65 -416.18,1081.51 -1.09,3.77 -2.63,7.46 -4.65,11.02 -13.84,24.39 -44.85,32.95 -69.24,19.11 -155.11,-88.27 -305.94,-117.55 -444.18,-105.71 -134.3,11.48 -257.17,61.72 -360.82,134.28 -104.29,73 -189.18,168.46 -246.86,269.84z"/>
   <path class="fil3" d="M10824.46 19421.26c-26.7,8.56 -55.3,-6.13 -63.86,-32.83 -8.57,-26.7 6.13,-55.3 32.83,-63.87 743.21,-240.61 1515.71,-535.69 2191.85,-893.86 672.46,-356.22 1248.74,-774.47 1603.67,-1262.82 16.48,-22.74 48.29,-27.82 71.04,-11.34 22.73,16.48 27.82,48.28 11.34,71.03 -364.97,502.17 -953.45,930.07 -1638.7,1293.07 -681.57,361.05 -1459.73,658.33 -2208.15,900.62z"/>
   <path class="fil3" d="M12927.54 18549.94c-3.19,27.91 -28.4,47.94 -56.31,44.77 -27.91,-3.19 -47.95,-28.4 -44.77,-56.31 0.12,-1.01 36.61,-347.74 403.77,-748.27 18.9,-20.65 50.97,-22.08 71.63,-3.19 20.65,18.9 22.08,50.97 3.19,71.63 -344.39,375.71 -377.41,690.46 -377.51,691.37z"/>
   <path class="fil3" d="M13377.74 18287.79c-21.75,-17.8 -24.96,-49.87 -7.16,-71.63 17.8,-21.75 49.87,-24.96 71.63,-7.16 0.49,0.4 166.99,139.2 657.17,154.87 28.02,0.88 50.02,24.31 49.14,52.33 -0.87,28.02 -24.31,50.02 -52.33,49.14 -525.32,-16.81 -717.88,-177.11 -718.44,-177.56z"/>
   <path class="fil3" d="M11820.13 19038.81c-21.09,-18.47 -23.23,-50.53 -4.78,-71.64 18.47,-21.09 50.53,-23.23 71.64,-4.77 1,0.87 347.45,305.04 860.99,485.05 26.48,9.22 40.47,38.17 31.24,64.65 -9.22,26.49 -38.18,40.47 -64.66,31.25 -532.21,-186.54 -893.38,-503.63 -894.43,-504.54z"/>
   <path class="fil4" d="M7919.91 21330.9c-21.53,18.02 -53.61,15.17 -71.63,-6.37 -18.02,-21.53 -15.17,-53.61 6.37,-71.63 511.79,-428.53 1013.63,-810.67 1503.14,-1135.37 490.19,-325.14 968.07,-592.64 1431.29,-791.41 25.82,-10.99 55.67,1.04 66.65,26.86 10.99,25.82 -1.04,55.67 -26.86,66.65 -457.17,196.17 -929.64,460.74 -1414.96,782.64 -485.98,322.34 -984.8,702.24 -1494,1128.61z"/>
   <path class="fil2" d="M4381.42 17285.25c703.03,1934.15 1968.84,2799.66 3951.23,2304.48 -772.29,-1477.8 -2086.44,-2249.77 -3951.23,-2304.48z"/>
   <path class="fil3" d="M4455.34 17338.63c345.6,919.57 822.51,1586.3 1448.2,1966.49 626.35,380.58 1404.95,475.29 2353.59,250.59 -378.33,-701.77 -883.35,-1238.21 -1516.08,-1607.9 -633.14,-369.93 -1394.72,-573.41 -2285.72,-609.17zm1395.68 2053.23c-662.62,-402.62 -1161.87,-1111.33 -1517.35,-2089.3 -2.09,-5.83 -3.16,-12.13 -2.99,-18.7 0.77,-28.02 24.11,-50.1 52.13,-49.34 941.31,27.61 1744.15,236.55 2409.57,625.34 665.34,388.74 1192.74,956.83 1583.3,1702.74 2.81,4.46 4.97,9.41 6.31,14.79 6.81,27.25 -9.75,54.87 -37,61.68 -1005.05,251.05 -1829.94,156.27 -2493.97,-247.21z"/>
   <path class="fil3" d="M8351.96 19542.76c25.92,10.66 38.31,40.33 27.65,66.26 -10.65,25.93 -40.32,38.31 -66.25,27.66 -661.4,-273.27 -1302.4,-581.36 -1918.06,-932.67 -616.34,-351.69 -1207.28,-746.58 -1767.9,-1193.01 -21.98,-17.48 -25.63,-49.45 -8.16,-71.44 17.47,-21.97 49.45,-25.62 71.43,-8.15 556.8,443.38 1143.33,835.35 1754.78,1184.25 612.12,349.29 1249.25,655.55 1906.52,927.09z"/>
   <path class="fil3" d="M6380.89 18592.18c9.67,26.36 -3.87,55.59 -30.24,65.26 -26.37,9.66 -55.6,-3.88 -65.26,-30.25 -75.11,-204.16 -152.37,-379.87 -231.41,-531.6 -78.89,-151.46 -158.98,-278.2 -240.01,-384.85 -16.92,-22.31 -12.55,-54.12 9.75,-71.04 22.3,-16.92 54.11,-12.55 71.03,9.75 85.3,112.26 168.64,243.84 249.56,399.19 80.77,155.06 159.75,334.71 236.57,543.53z"/>
   <path class="fil3" d="M5370.88 17996.23c17.25,-22.09 49.14,-26.01 71.23,-8.76 22.08,17.26 26.01,49.15 8.76,71.24 -45.76,58.65 -103.54,110.14 -171.57,155.48 -66.35,44.23 -143.02,82.85 -228.29,116.79 -26.04,10.32 -55.53,-2.41 -65.85,-28.45 -10.33,-26.05 2.41,-55.54 28.45,-65.86 78.24,-31.15 148.64,-66.61 209.57,-107.24 59.25,-39.49 109.03,-83.63 147.7,-133.2z"/>
   <path class="fil3" d="M7170.65 19040.74c20.65,-19.02 52.81,-17.67 71.83,2.98 19.01,20.65 17.67,52.82 -2.99,71.84 -86.46,79.57 -181.29,151.71 -283.42,217.33 -101.7,65.36 -210.64,124.27 -325.75,177.63 -25.49,11.76 -55.7,0.63 -67.45,-24.87 -11.76,-25.49 -0.63,-55.69 24.87,-67.45 110.92,-51.42 215.74,-108.09 313.4,-170.85 97.24,-62.48 187.43,-131.07 269.5,-206.6z"/>
   <path class="fil3" d="M5697.28 17434.82c10.43,26.05 -2.21,55.63 -28.26,66.06 -26.04,10.43 -55.62,-2.21 -66.05,-28.25 -220.03,-546.73 -378.25,-1104.57 -469.59,-1680.69 -91.38,-576.38 -115.83,-1170.43 -68.31,-1789.29 2.09,-28.02 26.5,-49.04 54.52,-46.95 28.02,2.08 49.03,26.49 46.95,54.51 -46.96,611.59 -22.94,1197.84 67.11,1765.81 90.09,568.22 246.3,1118.81 463.62,1658.81z"/>
   <path class="fil3" d="M5462.39 16826.27c-14.39,24.06 -45.58,31.91 -69.64,17.52 -24.06,-14.4 -31.91,-45.58 -17.51,-69.64 0.64,-1.09 225.94,-376.46 272.8,-610.7 5.5,-27.58 32.32,-45.49 59.9,-40 27.58,5.5 45.49,32.31 39.99,59.9 -50.18,250.88 -284.87,641.8 -285.54,642.93z"/>
   <path class="fil3" d="M5136.75 15139.58c-22.95,16.16 -54.67,10.63 -70.83,-12.33 -16.15,-22.96 -10.62,-54.68 12.34,-70.83 0.7,-0.5 244.73,-169.09 430.21,-490.42 13.96,-24.28 44.97,-32.66 69.25,-18.71 24.27,13.95 32.65,44.97 18.7,69.24 -197.25,341.72 -458.91,522.52 -459.67,523.05z"/>
   <path class="fil3" d="M5268.71 16086.33c25.49,11.76 36.63,41.97 24.87,67.46 -11.75,25.49 -41.96,36.62 -67.45,24.87 -147.81,-68.75 -286.68,-152.66 -416.3,-252.16 -129.33,-99.28 -249.45,-214.03 -360.04,-344.69 -144.46,-154.95 -229.51,-357.26 -272.03,-593.44 -41.68,-231.54 -42.45,-495.08 -18.56,-777.93 -34.47,-377.15 -8.24,-724 57.74,-1050.96 66.23,-328.21 172.14,-635.39 296.68,-932.64 10.76,-25.93 40.52,-38.22 66.45,-27.46 25.93,10.77 38.22,40.53 27.46,66.46 -122.57,292.54 -226.58,593.79 -291.1,913.53 -64.22,318.24 -89.71,655.88 -56.04,1023.09 0.72,4.18 0.93,8.5 0.57,12.93 -23.57,276.84 -23.27,533.08 16.69,755.06 39.2,217.79 116.6,403.11 247.38,543l1.59 1.8c106.09,125.48 221.14,235.48 344.89,330.46 123.74,94.99 256.23,175.05 397.19,240.61z"/>
   <path class="fil3" d="M4251.83 13449.73c20.32,19.34 21.12,51.5 1.79,71.83 -19.34,20.32 -51.5,21.12 -71.83,1.79 -0.72,-0.68 -252.21,-239.89 -264.71,-380.56 -2.42,-27.9 18.26,-52.49 46.16,-54.91 27.91,-2.41 52.5,18.26 54.92,46.17 9.05,101.86 233.04,315.08 233.67,315.69z"/>
   <path class="fil3" d="M4221.04 13810.89c-24.61,13.51 -55.53,4.52 -69.05,-20.09 -13.51,-24.61 -4.52,-55.53 20.09,-69.04 0.6,-0.33 209.29,-114.95 308.94,-217.16 19.57,-20.1 51.72,-20.55 71.83,-0.99 20.1,19.56 20.55,51.71 0.99,71.82 -110.56,113.39 -332.17,235.11 -332.8,235.46z"/>
   <path class="fil3" d="M4359.18 12912.33c-26.15,10.21 -55.64,-2.71 -65.85,-28.86 -10.22,-26.14 2.7,-55.64 28.85,-65.85 0.84,-0.33 296.38,-116.28 345.43,-165.33 19.89,-19.78 52.05,-19.69 71.83,0.2 19.78,19.89 19.69,52.04 -0.2,71.83 -64.14,64.11 -379.16,187.65 -380.05,188.01z"/>
   <path class="fil3" d="M4268.88 14976.59c20.55,19.12 21.7,51.28 2.59,71.83 -19.12,20.54 -51.28,21.7 -71.83,2.59 -0.65,-0.61 -226.72,-213.77 -479.71,-198.89 -28.02,1.64 -52.07,-19.74 -53.72,-47.75 -1.65,-28.02 19.74,-52.07 47.75,-53.72 296.84,-17.46 554.17,225.25 554.91,225.95z"/>
   <circle class="fil5" cx="3380.04" cy="14903.79" r="374.64"/>
   <path class="fil3" d="M13522.19 17466.47c-12.96,24.83 -43.61,34.45 -68.44,21.49 -24.83,-12.96 -34.45,-43.61 -21.48,-68.44 276.36,-527.41 492.48,-1107.01 620.71,-1707.7 119.03,-557.56 162.22,-1132.86 107.41,-1700.91 -2.64,-27.91 17.86,-52.68 45.77,-55.32 27.91,-2.64 52.67,17.86 55.31,45.77 55.88,579.06 12.02,1164.66 -109,1731.55 -130.1,609.45 -349.56,1197.84 -630.28,1733.56z"/>
   <path class="fil3" d="M14229.35 15243.26c-17.48,21.98 -49.45,25.63 -71.44,8.16 -21.97,-17.48 -25.63,-49.45 -8.15,-71.44 0.93,-1.16 325.97,-408.53 334.47,-457.39 4.72,-27.68 31.01,-46.3 58.7,-41.58 27.68,4.73 46.3,31.01 41.58,58.7 -13.06,75.12 -354.18,502.31 -355.15,503.54z"/>
   <path class="fil3" d="M14178.76 15550.91c11.97,25.38 1.11,55.67 -24.27,67.65 -25.38,11.97 -55.68,1.11 -67.65,-24.27 -0.62,-1.32 -216.99,-459.11 -239.29,-726.87 -2.31,-28.02 18.54,-52.61 46.56,-54.91 28.02,-2.31 52.61,18.54 54.91,46.56 20.81,249.72 229.15,690.58 229.75,691.85z"/>
   <path class="fil3" d="M13994.81 16287.53c11.53,25.6 0.13,55.72 -25.47,67.25 -25.6,11.54 -55.72,0.14 -67.25,-25.46 -0.64,-1.42 -223.64,-497.3 -317.34,-578.68 -21.2,-18.35 -23.52,-50.42 -5.18,-71.63 18.35,-21.19 50.42,-23.51 71.63,-5.17 111.13,96.51 342.94,612.2 343.61,613.68z"/>
   <path class="fil3" d="M14001.18 16260.94c-24.5,13.62 -55.42,4.8 -69.05,-19.7 -13.62,-24.5 -4.8,-55.42 19.7,-69.05 1.11,-0.61 386.42,-212.11 531.45,-372.69 18.8,-20.76 50.86,-22.36 71.64,-3.58 20.76,18.8 22.36,50.86 3.58,71.63 -156.82,173.63 -556.17,392.75 -557.31,393.38z"/>
   <path class="fil3" d="M14736.52 14881.42c-20.76,18.9 -52.93,17.39 -71.83,-3.38 -18.9,-20.77 -17.39,-52.93 3.39,-71.83 0.88,-0.81 304.93,-279.82 608.26,-274.04 28.02,0.44 50.38,23.51 49.94,51.53 -0.44,28.02 -23.51,50.38 -51.53,49.94 -262.65,-5 -537.44,247.05 -538.24,247.77z"/>
   <circle class="fil5" cx="15577.46" cy="14674.66" r="374.64"/>
   <path class="fil3" d="M14753.04 14847.99c-2.31,28.02 -26.9,48.86 -54.92,46.56 -28.02,-2.3 -48.85,-26.89 -46.56,-54.91 38.04,-444.85 2.38,-1038.08 -70.57,-1563.88 -75.95,-547.49 -190.65,-1018.44 -302.65,-1166.14 -16.93,-22.3 -12.56,-54.11 9.74,-71.03 22.3,-16.93 54.11,-12.56 71.04,9.74 122.6,161.67 244.51,650.93 322.55,1213.49 73.9,532.74 110,1134.33 71.37,1586.16z"/>
   <path class="fil3" d="M14669.24 13242.61c-13.07,24.83 -43.81,34.37 -68.64,21.29 -24.83,-13.07 -34.36,-43.81 -21.28,-68.64 0.55,-1.05 194.68,-367.43 214.85,-483.37 4.73,-27.68 31.01,-46.3 58.7,-41.58 27.69,4.73 46.31,31.01 41.59,58.7 -22.96,132.03 -224.63,512.51 -225.21,513.59z"/>
   <path class="fil3" d="M14667.21 13278.79c23.07,15.93 28.87,47.55 12.94,70.63 -15.94,23.07 -47.56,28.87 -70.64,12.94 -0.97,-0.68 -339.33,-234.22 -385.56,-311.28 -14.4,-24.06 -6.56,-55.24 17.51,-69.64 24.06,-14.39 55.25,-6.55 69.64,17.52 34.62,57.71 355.2,279.19 356.11,279.83z"/>
   <path class="fil6" d="M9500.34 19458.68c-1777.45,-857.78 -3206.93,-2391.44 -3574.51,-5867.55 -35.27,-2011.18 -719.28,-2776.71 -1703.88,-3061.84 885.09,-1080.33 1945.83,-1456.77 3276.52,-1207.45 177.69,-1343.6 700.28,-2325.15 1800.27,-2969.56 1086.52,538.72 1917.73,1575.95 2214.26,2969.56 1330.69,-249.31 2315.14,180.62 3200.22,1260.95 -841.75,581.62 -2077.45,1366.42 -1951.01,3067.63 214.6,2683.71 -1635.36,4939.71 -3261.87,5808.26z"/>
   <g style="clip-path:url(#id0)">
    <g>
     <ellipse class="fil7" cx="9439.92" cy="19477.66" rx="2735.69" ry="2998.02"/>
    </g>
   </g>
   <path class="fil8" d="M9500.34 19458.68c-1777.45,-857.78 -3206.93,-2391.44 -3574.51,-5867.55 -35.27,-2011.18 -719.28,-2776.71 -1703.88,-3061.84 885.09,-1080.33 1945.83,-1456.77 3276.52,-1207.45 177.69,-1343.6 700.28,-2325.15 1800.27,-2969.56 1086.52,538.72 1917.73,1575.95 2214.26,2969.56 1330.69,-249.31 2315.14,180.62 3200.22,1260.95 -841.75,581.62 -2077.45,1366.42 -1951.01,3067.63 214.6,2683.71 -1635.36,4939.71 -3261.87,5808.26z"/>
   <path class="fil9" d="M9456.17 19550.2c-903.69,-436.11 -1719.24,-1044.49 -2356.15,-1986.52 -634.22,-938.06 -1089.52,-2205.68 -1275.26,-3962.21l-0.3 -2.77 -0.1 -5.99c-17.28,-985.3 -191.61,-1662.49 -480.82,-2126.06 -283.41,-454.26 -680.63,-704 -1149.84,-839.88l-148.09 -42.88 97.55 -119.08c454.21,-554.41 955.29,-928.87 1515.33,-1133.39 530.99,-193.9 1112.22,-233.65 1754.03,-127.89 94.66,-640.85 270.4,-1199.87 552.68,-1680.01 299.2,-508.92 716.66,-927.47 1282.21,-1258.81l47.45 -27.79 48.84 24.21c568.78,282.01 1069.13,696.79 1462.95,1224.95 360.16,483.01 631.38,1060.9 784.46,1718.79 644.74,-106.44 1211.22,-53.87 1726.89,154.49 540.1,218.24 1020.76,605.74 1473.99,1158.94l69.81 85.23 -90.9 62.8 -90.63 62.45c-816.32,561.71 -1933.91,1330.75 -1816.66,2913.65l0.05 0c98.45,1231.07 -229.4,2373.01 -770.66,3336.83 -658.83,1173.14 -1635.85,2083.48 -2544.92,2568.92l-45.6 24.34 -46.33 -22.35zm-2187.43 -2100.32c603.18,892.14 1374.1,1474.63 2229.3,1894.64 865.35,-474.88 1789.19,-1345.9 2417.5,-2464.7 523.17,-931.59 840.13,-2034.27 745.2,-3221.43l0 -0.8c-126.2,-1697.94 1045.98,-2505.38 1902.9,-3095.04 -410.7,-481.96 -842.75,-821.2 -1321.23,-1014.54 -504.83,-203.99 -1065.1,-247.25 -1710.72,-126.3l-97.53 18.28 -20.65 -97.06c-142.06,-667.72 -409.44,-1251.5 -770,-1735.07 -363.41,-487.36 -821.35,-872.9 -1340.88,-1139.8 -510.37,308.46 -889.22,693.57 -1162.34,1158.13 -283.1,481.53 -454.06,1050.22 -541.14,1708.77l-14.08 106.48 -105.3 -19.74c-647.21,-121.26 -1227.45,-90.83 -1752.04,100.73 -485.15,177.17 -925.4,493.49 -1329.82,956.45 451.29,157.76 835.19,426.5 1118.33,880.33 307.11,492.26 492.3,1201.58 510.94,2224.05 181.99,1718.27 625.11,2954.8 1241.57,3866.6z"/>
   <path class="fil10" d="M5957.72 4837.79c-70.32,-87.46 -56.42,-215.39 31.05,-285.72 87.46,-70.32 215.38,-56.42 285.71,31.05l1510.78 1884.54c70.33,87.46 56.43,215.38 -31.04,285.71 -87.46,70.33 -215.39,56.43 -285.72,-31.04l-1510.78 -1884.54z"/>
   <path class="fil10" d="M4439.23 8082.02c-112.09,1.75 -204.38,-87.68 -206.13,-199.76 -1.76,-112.09 87.67,-204.37 199.75,-206.13l2415.06 -38.21c112.08,-1.76 204.37,87.67 206.13,199.76 1.75,112.08 -87.68,204.37 -199.76,206.13l-2415.05 38.21z"/>
   <path class="fil10" d="M9096.82 3389.19c-0.87,-112.08 89.27,-203.66 201.35,-204.54 112.09,-0.87 203.66,89.27 204.54,201.35l24.37 2415.23c0.87,112.09 -89.27,203.66 -201.35,204.54 -112.09,0.88 -203.67,-89.26 -204.54,-201.35l-24.37 -2415.23z"/>
   <path class="fil10" d="M12528.93 4662.3c71.21,-86.59 199.13,-99.05 285.72,-27.85 86.59,71.2 99.05,199.13 27.85,285.71l-1536.9 1863.29c-71.21,86.59 -199.13,99.06 -285.72,27.86 -86.58,-71.21 -99.05,-199.13 -27.85,-285.72l1536.9 -1863.29z"/>
   <path class="fil10" d="M14333.48 7978.98c112.08,2.64 200.8,95.64 198.16,207.71 -2.64,112.09 -95.64,200.81 -207.71,198.17l-2414.51 -63.89c-112.08,-2.64 -200.8,-95.64 -198.16,-207.72 2.64,-112.08 95.64,-200.8 207.72,-198.16l2414.5 63.89z"/>
   <path class="fil11" d="M8742.53 14462.31c354.58,-1089.26 725.65,-2064.75 1239.12,-2056.18 890.35,815.76 1488.69,1701.6 1660.28,2689.87 73.22,624.9 -36.39,1183.61 -380.03,1657.59 -314.69,-839.11 -689.13,-1523.47 -1320.67,-1541.69 -630.6,41.82 -1168.16,877.2 -1676.46,1962.15 -115.54,256.51 -251.03,296.91 -409.68,86.25 -656.86,-769.89 -495.09,-2013.72 -58.64,-3416.58 423.86,159.08 795.84,340.69 946.08,618.6z"/>
   <path class="fil11" d="M8512.83 13429.58c888.1,-1550.28 1761.52,-2326.92 2703.34,-274.91 130.21,-719.31 -96.87,-1568.95 -498.62,-2482.35 -171.8,172.8 -318.01,353.63 -363.86,566.02 -187.96,-446.85 -417.59,-872.05 -695.39,-1272.18 -1085.07,1026.94 -1645.29,2270.28 -1145.48,3463.42z"/>
   <path class="fil12" d="M7136.12 10301.15l75.08 -377.21c-674.08,-368.32 -1350.72,151.76 -1362.88,819.57 -7.64,419.65 117.08,649.26 514.45,694.01 186.92,21.05 355.44,-29.16 501.23,-94.93 113.65,-51.27 104.59,-48.36 128.92,-177.12 16.8,-88.87 32.84,-144.26 43.72,-233.38 -14.03,1.88 -26.02,-8.48 -39.84,-2.72 -123.37,51.52 -247.24,238.03 -526.28,199.81 -231.69,-31.74 -267.21,-289.88 -223.04,-530.96 38.42,-209.71 151.6,-395.37 330.64,-457.99 174.58,-66.39 344.54,-35.43 518.21,159.42l39.77 1.5z"/>
   <path class="fil12" d="M11637.98 11207.9l-52.48 356.42c0.2,0.2 678.22,185.77 902.77,-330.1 65.21,-149.82 243.35,-1222.96 248.55,-1422.59l-682.01 20.25 -50.65 320.58 316.74 0.29c-13.35,209.06 -82.67,595.88 -130.85,801.45 -108.42,462.49 -416.47,283.87 -552.08,253.7z"/>
   <path class="fil12" d="M8729.63 8794.36l-61.98 421.82c263.62,104.64 533.26,140.18 811.27,79.51 312.07,-80.55 481.69,-262.61 481.11,-565.98 9.63,-252.58 -147.65,-373.65 -375.29,-439.3 -283.82,-80.82 -411.56,-165.36 -393.51,-253.36 19.49,-131.75 128.75,-191.68 309.97,-194.05 205.01,8.35 349.75,76.99 454.15,185.97l40.43 0 56.6 -404.29c-426.15,-218.43 -1211.64,-141.65 -1238.47,464.93 -1.43,172.89 72.4,314.52 261.44,408.34 256.32,83.72 475.52,165.62 512.1,238.54 24.91,135.71 -19.48,234.94 -199.43,262.81 -244.24,44.43 -439.48,-49.55 -611.83,-208.21l-46.55 3.26z"/>
   <path class="fil13" d="M539.8 11180.11c8.27,-96.45 39.24,-187.88 93.33,-274.6 25.51,-40.74 38.79,-69.43 40.21,-86.01 1.02,-11.84 -0.32,-31.01 -4.74,-57.89 -1.47,-8.95 -1.77,-18.52 -0.87,-29.01 2.96,-34.51 22.96,-63.39 60.04,-86.63 89.28,-57.65 196.59,-81.66 321.23,-72.77 87.54,6.25 149.37,38.24 185.11,95.95 19.33,31.35 27.24,65.28 24.05,102.5 -2.87,33.5 -13.01,60.36 -30.79,80.55 -17.75,19.86 -48.08,38.45 -90.22,55.54 -59.57,24.35 -102.71,44.44 -129.47,60.56 -26.36,15.83 -50.88,36.21 -73.48,60.47 -54.45,60.47 -85.08,126.06 -91.08,196.11 -5.83,68.03 16.61,124.11 66.97,167.88 50.74,43.8 121.36,68.93 211.88,75.38 124.64,8.89 240.98,-11.74 349.78,-61.87 145.03,-67.97 223.6,-174.74 236.07,-320.27 4.59,-53.47 -0.51,-107.29 -15.67,-161.16 -15.13,-54.2 -36.88,-96.61 -65.54,-127.93 -23.82,-26.9 -35.03,-48.47 -33.67,-64.38 1.97,-23.01 15.19,-42.16 40.35,-57.05 24.76,-14.58 54.05,-21 87.43,-18.63 41.92,3 88.04,17.87 138.35,44.95 49.96,26.72 88.76,57.42 115.64,92.02 11.05,14.75 19.35,44.28 25.25,88.63 2.68,25.38 13.16,59.85 31.48,103.03 43.19,101.48 60.06,204.85 50.99,310.78 -9.46,110.34 -45.97,218.4 -109.92,324.5 -73.97,122.77 -179.06,216.74 -315.99,281.54 -133.1,63.71 -268.63,90.47 -406.99,80.61 -160.99,-11.49 -303.62,-67.29 -428.6,-168.14 -108.21,-87.39 -187.24,-197.23 -237.52,-329.2 -38.04,-100.43 -52.45,-202.26 -43.61,-305.48z"/>
   <path class="fil13" d="M1338.9 9059.21c25.74,-123.05 82.44,-224.95 169.59,-305.12 62.69,-57.84 137.23,-99.53 223.67,-125.4 90.39,-26.57 179.77,-31.86 268.4,-15.44 155.29,28.77 273.09,120.39 353.89,274.26 76.9,147.07 98.27,303.18 63.73,468.27 -33.58,160.61 -109.55,281.87 -227.44,363.5 -114.82,79.69 -247.97,105.14 -399.6,77.06 -168.84,-31.28 -294.53,-116.13 -377.11,-254.22 -87.22,-145.05 -112.2,-305.77 -75.14,-482.92zm231.02 126.92c-6.21,29.64 0.62,55.25 19.95,77.44 19.7,22.26 48.58,36.92 87.03,44.05 43.22,8 103.04,11.21 180.19,9.75 77.52,-1.4 146.83,-7.17 208.36,-17.62 62.92,-9.82 99.37,-38.52 109.24,-85.74 12.54,-59.98 -21.46,-97.42 -102.41,-112.42 -60.06,-11.12 -129.77,-16.16 -209.49,-15.17 -79.72,0.98 -145.87,8.06 -198.32,20.54 -53.33,13.03 -84.73,39.44 -94.55,79.15z"/>
   <path class="fil13" d="M2203.58 7122.24l326.55 126.32c144.51,55.9 229.53,86.15 255.12,91.51 25.36,4.91 50.23,-3.58 74.39,-25.94 20.59,-19.6 37.13,-31.31 50.08,-35.36 12.74,-4.5 27.91,-3.17 45.63,3.69 22.23,8.6 39.64,24.01 51.86,46.11 12.21,22.09 16.87,46.9 13.93,74.46 -4.03,51.66 -28.29,131.73 -73.24,240.41 -50.72,122.67 -96.47,205 -136.37,246.93 -18.46,19.29 -39.81,32.92 -64.62,40.3 -24.82,7.38 -47.23,7.02 -67.73,-0.91 -15.98,-6.19 -27.22,-15.06 -32.68,-26.23 -5.33,-11.49 -8.95,-32.91 -10.08,-64.29 -1.23,-29.16 -26.52,-56.69 -75.51,-82.43 -84.07,-44.23 -207.32,-97.95 -370.25,-160.97 -165.71,-64.1 -273.89,-100.67 -325.13,-110.29 -51.36,-9.31 -95.6,-0.75 -133.54,25.71 -27.36,20.36 -50.31,33 -68.95,37.12 -18.63,4.11 -38.36,2.14 -59.56,-6.06 -33.34,-12.9 -56,-39.02 -68.41,-78.17 -12.63,-39.61 -15.78,-96.32 -9.58,-169.78 3.93,-49.44 13.8,-111.3 29.88,-186.22 16.08,-74.93 30.47,-128.25 43.66,-160.14 20.72,-50.11 64.43,-62.26 130.79,-36.59 21.88,8.46 70.35,30.61 145.82,67.36 117.88,55.03 227.38,103.04 327.93,143.46z"/>
   <path class="fil13" d="M3401.01 5552.28l-247.89 416.7c-10.8,18.16 -7.44,32.18 9.75,41.88 41.2,23.24 92.04,24.44 153.23,3.18 61.5,-21.07 106.32,-55.62 134.76,-103.43 16.92,-28.44 29.81,-63.2 38.65,-104.29 8.84,-41.09 11.34,-78.07 7.47,-110.17 -3.05,-28.39 -1.29,-48.82 5.73,-60.62 9.18,-15.44 28.25,-24.89 57.33,-27.88 28.94,-3.49 54.52,0.85 75.93,12.92 45.75,25.81 74.02,77.32 84.52,154.37 19.61,136.76 -7.21,266.32 -80.31,389.19 -73.8,124.07 -174.34,206.4 -301.59,246.96 -62.4,18.96 -128.32,27.04 -198.01,23.29 -92.4,-5.65 -177.93,-30.86 -257.09,-75.51 -106.74,-60.2 -184.29,-143.97 -233.47,-252.14 -42.68,-93.59 -58.08,-190.8 -46.2,-291.6 8.57,-75.6 33.83,-148.66 75.59,-218.86 66.79,-112.27 157.75,-188.68 272.83,-228.45 57.98,-20.23 117.6,-29.44 178.73,-27.29 69.77,2.17 130.28,17.72 180.89,46.27 41.2,23.24 70.08,50.44 86.81,81.31 16.92,30.56 17.47,58.76 2.35,84.18zm-411.49 293.29l53.29 -89.57c22.5,-37.82 14.84,-67.2 -22.46,-88.24 -34.39,-19.41 -67.7,-26.06 -100.08,-19.68 -32.22,6.08 -57.47,23.75 -75.1,53.41 -19.63,32.99 -21.15,66.88 -4.6,101.68 15.33,32.5 36.39,56.1 62.98,71.11 19.15,10.79 34.97,14.06 47.65,9.49 12.82,-4.08 25.54,-16.71 38.32,-38.2zm-674.71 -562.89c32.05,-53.87 69.25,-96.74 111.29,-128.8 20.53,-16.31 42.12,-26.36 65.1,-30.77 22.99,-4.42 42.02,-2.17 56.91,7.04 28.16,17.5 47.92,62.19 58.67,133.72 21.18,131.18 -0.52,250.7 -64.97,359.04 -36.18,60.82 -77.87,77.72 -124.59,51.37 -17.2,-9.7 -28.05,-19.87 -33.21,-30.86 -4.66,-11.11 -10.25,-38.12 -16.94,-81.5 -4.93,-38.34 -9.33,-62.25 -12.22,-71.97 -3.4,-9.59 -9.05,-16.83 -18.15,-21.95 -5.51,-3.11 -17.4,-4.97 -34.84,-5.51 -5.66,0.04 -11.24,-1.5 -16.44,-4.43 -15.57,-8.78 -20.95,-29.6 -15.49,-62.08 5.46,-32.5 20.14,-70.29 44.88,-113.32z"/>
   <path class="fil13" d="M4071.26 3513.45c10.49,-13.18 28.16,-18.7 52.72,-16.78 24.64,2.41 47.79,12.06 69.66,28.66 23.64,17.96 45.09,45.24 64.3,81.86 19.15,36.11 29.98,70.76 32.5,103.93 1.69,21.09 6.05,34.09 12.84,39.26 1.77,1.35 9.3,6.18 22.29,14.28 13.44,7.56 25.02,15.04 34.77,22.44 68.87,52.29 109.24,117.73 121.85,196 11.08,70.07 3.53,144.48 -21.71,222.63 -25.46,78.43 -67.25,154.14 -125.17,226.88 -14.2,17.84 -28.85,34.45 -44.99,49.94 -12.7,12.38 -22.32,22.68 -28.23,30.1 -22.51,28.26 -18.5,54.2 11.94,77.32 19.81,15.04 42.61,17.38 68.48,7.51 25.87,-9.86 51.59,-30.84 76.72,-62.4 17.05,-21.41 38.92,-55.44 66.15,-102.14 56.63,-97.92 101.4,-167.85 134.84,-209.84 50.26,-63.12 100.9,-103.49 151.12,-121.3 39.22,-14.69 81.16,-18.53 125.38,-10.93 44.16,7.09 84.4,24.45 120.16,51.6 58.24,44.22 98.96,106.84 122.24,188.37 27.14,96.36 19.74,202.15 -22.21,317.38 -33.02,90.3 -86.89,182.38 -162.07,276.8 -94.84,119.1 -191.06,200.62 -289.37,244.88 -45.64,20.38 -91.8,28.93 -138.05,26.85 -46.32,-2.59 -85.45,-16 -117.65,-40.45 -22.76,-17.29 -38.86,-38.76 -48.59,-64.64 -10.04,-26.12 -12.05,-50.99 -5.84,-74.88 5.59,-21.3 4.76,-35.15 -3.23,-41.21 -6.51,-4.94 -21.12,-5.03 -43.96,-0.79 -72.81,13.42 -130.05,4.3 -171.43,-27.12 -27.78,-21.08 -48.14,-53.29 -61.01,-96.1 -13.17,-43.02 -15.61,-85.82 -7.38,-128.9 3.48,-18.06 1.4,-29.76 -5.4,-34.92 -7.97,-6.06 -26.44,-7.29 -55.59,-3.45 -98.9,13.42 -184.81,-7.33 -258.41,-63.21 -38.42,-29.18 -67.5,-67.11 -87.45,-113.52 -19.44,-46.47 -27.66,-96.3 -24.73,-150.01 8.02,-132.18 53.85,-251.08 137.33,-355.91 33.43,-41.99 76.49,-84.16 128.89,-126.72 49.23,-41 80.92,-70.67 95.35,-88.77 46.55,-58.46 68.05,-135.5 64.8,-230.88 -0.38,-20.97 2.47,-34.68 8.14,-41.81zm-168.56 572.63c-21.41,26.9 -27.52,56.61 -18.47,89.9 8.75,33.09 31.39,63.03 67.74,90.63 62.37,47.35 119.31,76.5 170.83,87.43 51.74,10.66 89.23,1.7 112.18,-27.12 22.73,-28.54 28.83,-60.02 18.6,-94.21 -10.02,-34.48 -34.8,-66.5 -74.11,-96.35 -61.76,-46.9 -116.64,-74.47 -164.99,-83.45 -48.27,-8.46 -85.46,2.5 -111.78,33.16zm648.34 773.68c-10.7,13.44 -7.38,26.54 9.17,39.1 33.98,25.81 75.32,29.89 123.62,11.52 48.3,-18.38 94.35,-54.75 138.06,-109.65 41.74,-52.41 67.13,-99.2 75.65,-140.27 8.74,-41.36 -0.44,-72.12 -27.63,-92.76 -14.49,-10.99 -30.98,-14.71 -50.5,-11.03 -19.01,3.62 -34.95,13.52 -48.28,30.27 -6.77,8.5 -15.43,21.75 -25.96,39.74 -18.8,33.73 -42.79,69.23 -72.3,106.28 -21.63,27.17 -44.09,52.39 -66.85,75.62 -16.63,17.32 -31.24,30.89 -43.59,40.45 -5.34,4.32 -9.2,7.98 -11.39,10.73z"/>
   <path class="fil13" d="M5418.83 2520.68l398.26 493.25c31.59,39.12 58.1,65.24 79.58,77.83 21.43,13.1 48.72,18.89 81.78,18.35 26.8,-0.43 46.89,1.49 59.5,5.89 12.87,4.19 24.79,13.34 35.78,26.96 58.97,73.03 -0.54,178.08 -178.81,315.35 -95.98,73.9 -178.42,124.22 -247.12,151.75 -23.93,9.02 -47.23,10.99 -70.42,5.82 -23.18,-5.18 -41.92,-16.61 -56.66,-34.86 -12.4,-15.36 -18.93,-29.61 -19.86,-42.52 -0.64,-13.14 3.71,-38.57 13.05,-76.31 6.21,-25.93 1.12,-56.33 -15.54,-90.96 -16.62,-35.15 -48.32,-81.71 -95.36,-139.96 -15.21,-18.84 -44.92,-52.83 -88.6,-101.9 -43.65,-49.58 -69.71,-77.93 -77.61,-85.48 -21.78,-20.81 -51.64,-26.97 -89.04,-18.38 -46.16,10.63 -81.15,0.92 -105.24,-28.93 -28.79,-35.65 -28.28,-79.28 1.53,-130.91 41.44,-71.39 90.1,-142.23 146.05,-213.04 56.18,-70.52 103.23,-120.38 141.45,-149.82 30.13,-23.2 58.96,-17.2 87.27,17.88zm-462.03 -247.22c47.42,-36.52 92.58,-56.25 134.95,-59.27 42.87,-2.93 76.7,10.96 101.98,42.26 35.09,43.47 42.02,94.07 20.48,152.02 -33.87,91.41 -98.08,173.28 -192.38,245.89 -39.9,30.73 -77.74,47.18 -114.04,49.29 -47.9,3.98 -86.74,-12.18 -115.98,-48.4 -39.32,-48.68 -36.72,-112.73 8.04,-192.32 45.38,-80.53 97.53,-143.71 156.94,-189.47z"/>
   <path class="fil13" d="M6894.35 1598.84c115.03,-50.67 230.91,-63.88 346.82,-39.65 83.52,17.32 160.8,53.67 232.15,108.91 74.22,58.05 130.53,127.65 168.76,209.28 66.97,143.02 61.01,292.14 -17.1,447.4 -74.83,148.13 -189.36,256.35 -343.7,324.35 -150.17,66.15 -292.98,74.95 -427.97,26.58 -131.62,-46.99 -229.82,-140.46 -295.22,-280.11 -72.84,-155.51 -76.96,-307.1 -12.73,-454.62 67.19,-155.34 183.36,-269.18 348.99,-342.14zm31.23 261.72c-27.72,12.21 -44.58,32.67 -51.37,61.29 -6.65,28.97 -1.76,60.99 14.83,96.41 18.65,39.81 50.85,90.32 96.94,152.22 46.25,62.23 91.28,115.23 135.58,159.19 44.62,45.46 89.16,58.39 133.3,38.94 56.07,-24.7 66.73,-74.15 31.82,-148.71 -25.91,-55.32 -62.38,-114.94 -109.58,-179.2 -47.19,-64.24 -91.45,-113.92 -132.12,-149.32 -41.64,-35.77 -81.38,-45.95 -119.39,-30.83z"/>
   <path class="fil13" d="M12733.18 1934.5c103.63,59.94 176.02,138.8 217.16,236.59 21.63,52.08 29.66,101.9 23.77,149.26 -6.19,47.18 -27.74,104.83 -64.8,172.45l-79.88 141.35c-54.24,98.98 -82.62,166.87 -85.63,203.86 -1.29,17.75 0.28,30.27 4.23,37.71 3.65,7.26 14.34,17.77 31.76,32.14 17.11,14.2 19.22,33.06 6.33,56.58 -16.82,30.7 -45.65,56.19 -86.88,75.78 -41.13,20.09 -85.91,30.76 -134.35,32 -60.2,2.18 -114.53,-10.75 -163.3,-38.96 -62.48,-36.14 -99.34,-87.56 -110.37,-154.59 -3.37,-23.9 -10.47,-38.76 -21.45,-45.11 -11.88,-6.87 -31.73,-8.02 -60.3,-3.48 -85.04,12.33 -165.42,-3.62 -241.01,-47.33 -78.02,-45.14 -131.28,-99.6 -159.92,-163.05 -18.51,-41.68 -26.8,-87.34 -24.32,-135.81 2.17,-48.65 14.69,-93.46 37.42,-134.95 36.52,-66.64 93.55,-110.65 171.65,-133.01 122.06,-35.23 261,-8.21 416.81,81.04 34.44,19.93 58.06,28.85 71.14,26.95 12.96,-2.4 26.53,-16.92 41.21,-43.7 37.06,-67.62 57.51,-120.32 61.05,-158.28 3.36,-37.63 -9.56,-65.32 -39.43,-82.6 -17.99,-10.4 -37.05,-13.69 -57.35,-10.37 -20.28,3.33 -49.11,14.19 -86.67,32.91 -97.43,50.33 -175.1,58.75 -232.71,25.43 -29.26,-16.93 -48.01,-39.82 -56.11,-69.02 -8.56,-29.05 -4.29,-58.84 12,-88.55 16.84,-30.71 44.94,-54.89 84.93,-72.2 39.52,-17.16 85.28,-25.96 137.31,-26.41 141.07,1.15 270.38,35.49 387.73,103.37zm-363.36 519.43c-26.21,-15.16 -55.33,-16.95 -87.24,-4.87 -32.05,11.58 -56.53,33.55 -74.07,65.57 -16.83,30.71 -23.54,59.09 -20.21,85.96 3.52,26.56 16.31,46.43 39.17,59.66 47.55,27.5 94.95,-1.86 142.03,-87.77 19.34,-35.28 28.87,-60.73 28.48,-76.88 -0.08,-15.96 -9.6,-30.07 -28.15,-41.66zm282.41 -829.53l-14.15 25.81c-12.53,22.86 -30.48,36.57 -54.15,40.95 -23.67,4.38 -48.46,-0.93 -74.67,-16.09 -29.88,-17.28 -48.53,-41.84 -55.98,-73.67 -7.55,-32.34 -2.15,-64.91 15.93,-97.9 20.77,-37.9 47.54,-68.44 80.99,-92.11 28.4,-18.87 60.14,-28.45 95.44,-29.13 35.29,-0.66 69.16,8.6 101.76,27.46 31.71,18.34 57.85,39.48 78.44,63.43 20.41,24.29 55.56,75.15 104.89,153.59 23.25,36.68 43.85,60.63 62.13,71.21 14.93,8.64 30.89,1.52 48.32,-21.51 15.58,-21.1 25.71,-33.74 30.11,-38.08 4.52,-3.85 12.61,-6.9 23.63,-8.7 24.45,-4.35 49.73,0.81 75.94,15.97 77.42,44.79 93.04,109.31 46.85,193.58 -30.07,54.87 -69.18,90.33 -117.79,106.52 -48.13,16.04 -97.37,9.93 -146.74,-18.63 -25.61,-14.81 -47.28,-31.66 -65.1,-49.69 -17.63,-18.37 -40.69,-48.06 -68.84,-89.72 -19.24,-27.91 -40.43,-57.36 -63.56,-88.38 -28.61,-39.35 -43.11,-59.79 -43.62,-61.79 -8.66,-12.75 -17.29,-21.18 -25.82,-26.12 -13.72,-7.93 -24.9,-3.65 -34.02,13.01z"/>
   <path class="fil13" d="M14515.9 3281c81.82,95.43 128.01,202.52 138.4,320.47 7.6,84.96 -4.81,169.45 -37.02,253.75 -34.06,87.84 -84.37,161.9 -151.44,222.12 -117.49,105.53 -261.95,143.01 -433.19,113.22 -163.45,-28.74 -300.2,-107 -409.98,-235.04 -106.8,-124.58 -156.58,-258.72 -149.39,-401.93 6.87,-139.61 67.9,-260.65 182.62,-363.7 127.75,-114.74 271.65,-162.6 431.46,-143.83 168.13,19.33 310.74,97.55 428.54,234.94zm-241.47 105.68c-19.71,-22.99 -44.17,-33.21 -73.54,-31.42 -29.65,2.03 -58.89,15.99 -87.98,42.12 -32.7,29.37 -71.72,74.82 -117.61,136.86 -46.17,62.29 -83.86,120.75 -113.11,175.88 -30.59,55.87 -30.07,102.24 1.33,138.87 39.88,46.52 90.3,42.39 151.55,-12.62 45.45,-40.82 91.95,-92.99 139.79,-156.78 47.83,-63.77 82.57,-120.52 104.66,-169.7 22.18,-50.2 20.4,-91.19 -5.08,-123.2z"/>
   <path class="fil13" d="M10650.96 750.31c67.2,14.68 152.13,52.27 254.52,112.33 12.23,7.24 22.19,11.71 30.22,13.46 6.36,1.39 27.28,-0.89 62.06,-6.62 11.5,-2.05 22.86,-1.47 34.56,1.09 43.81,9.56 83.06,57.36 117.7,143.72 34.98,86.44 46.23,163.89 33.65,232.71 -7.29,39.9 -24.54,71.54 -51.29,94.24 -27.08,22.63 -56.04,30.77 -87.46,23.9 -26.08,-5.7 -46.42,-16.23 -60.72,-31.16 -13.91,-15.22 -43.87,-56.79 -89.01,-125.66 -63.66,-96.9 -133.54,-154.04 -209.1,-170.55 -36.78,-8.04 -67.68,-4.51 -92.88,9.77 -25.62,14.58 -41.27,37.42 -47.01,68.91 -11.36,62.23 30.24,120.05 124.46,173.37 127.12,73.08 207.9,123.85 242.01,152.24 150.34,124.98 209.72,273.84 178.31,445.9 -27.82,152.29 -107.39,264.32 -238.72,336.12 -134,73.13 -295.16,89.29 -482.4,48.37 -83.6,-18.26 -169.86,-48.53 -258.53,-90.37 -88.61,-42.2 -151.14,-82.5 -186.92,-120.77 -26.94,-29.49 -46.28,-85.5 -57.31,-167.83 -11.04,-82.36 -10.04,-160.18 3.26,-233.03 6.43,-35.14 17.92,-60.03 34.23,-75.12 20.59,-19.49 43.07,-26.37 67.81,-20.96 25.07,5.48 46.28,24.57 63.93,57.36 10.83,18.75 34.03,76.34 69.28,172.74 16.8,45.17 49.16,86.87 96.84,124.71 48.02,37.89 99.78,62.91 155.95,75.18 48.48,10.59 89.34,9.63 123.05,-3.57 33.69,-13.19 53.36,-35.15 58.97,-65.9 5.22,-28.56 -2.34,-55.72 -21.93,-81.69 -19.67,-25.62 -54.24,-53.35 -104.12,-82.91 -87.4,-52.6 -153.28,-97.45 -197.14,-135.2 -44.28,-37.46 -83.93,-81.15 -118.57,-131.35 -85.07,-122.51 -115.76,-247.6 -92.57,-374.63 11.5,-62.96 36.11,-121.53 73.75,-175.36 37.64,-53.82 84.86,-97.18 141.96,-130 128.05,-76.7 271.02,-98 429.18,-63.43z"/>
   <path class="fil13" d="M17414.4 8196.56c25.08,123.18 13.36,239.21 -34.93,347.33 -34.66,77.93 -86.61,145.73 -155.74,203.72 -72.5,60.18 -152.47,100.42 -240.36,120.43 -153.98,35.07 -298.44,-2.43 -433.55,-111.74 -128.85,-104.61 -210.28,-239.5 -243.93,-404.78 -32.75,-160.78 -10.99,-302.2 64.94,-423.84 73.89,-118.63 186.09,-194.73 336.44,-228.97 167.43,-38.13 316.44,-9.97 446.94,84.15 137.52,98.66 224.08,236.35 260.19,413.7zm-262.39 -25.09c-6.04,-29.67 -22.44,-50.49 -48.97,-63.21 -26.9,-12.65 -59.23,-14.67 -97.37,-5.99 -42.85,9.75 -99.06,30.5 -169.32,62.38 -70.64,31.98 -131.99,64.72 -184.36,98.67 -53.9,33.93 -75.99,74.71 -66.37,121.99 12.22,60.03 58.29,80.95 138.56,62.67 59.56,-13.56 125.57,-36.54 198.38,-69.01 72.81,-32.47 130.75,-65.15 173.98,-97.39 43.8,-33.09 62.18,-69.76 55.48,-110.12z"/>
   <path class="fil13" d="M17554.44 12401.29l-19.99 -484.45c-0.87,-21.1 -11.33,-31.02 -31.04,-29.75 -47.21,3.04 -90.46,29.8 -130.08,81.03 -40.01,51.26 -58.68,104.67 -56.38,160.25 1.36,33.08 9.55,69.23 24.6,108.48 15.03,39.25 33.14,71.59 53.9,96.36 18.07,22.12 27.75,40.19 28.32,53.91 0.74,17.95 -10.05,36.27 -32.78,54.67 -22.34,18.73 -46.14,29.08 -70.67,30.65 -52.41,3.38 -104.24,-24.33 -155.12,-83.14 -91.11,-103.84 -139.43,-227.02 -145.32,-369.85 -5.95,-144.25 33.3,-268.12 117.73,-371.62 41.92,-49.96 92.71,-92.74 153.14,-127.66 80.48,-45.75 165.89,-71.35 256.59,-77.18 122.29,-7.87 233.02,19.93 333.29,83.67 86.87,55.08 152.87,128.09 197.98,219.03 34.11,68 52.86,142.98 56.23,224.6 5.39,130.53 -29.07,244.22 -103.73,340.38 -37.5,48.62 -82.43,88.9 -134.8,120.49 -59.63,36.29 -118.8,56.33 -176.8,60.05 -47.2,3.04 -86.26,-3.98 -117.13,-20.68 -30.86,-16.36 -46.72,-39.68 -47.94,-69.23zm184.46 -470.44l4.3 104.13c1.81,43.98 24.27,64.4 67.02,61.65 39.4,-2.54 70.94,-15.15 94.58,-38.19 23.66,-22.68 35.15,-51.29 33.73,-85.77 -1.58,-38.35 -18.82,-67.58 -51.7,-87.68 -30.59,-18.85 -61.11,-27.11 -91.59,-25.15 -21.93,1.41 -36.97,7.32 -45.11,18.08 -8.5,10.42 -12.26,27.94 -11.23,52.93zm872.64 102.93c2.59,62.62 -5.17,118.86 -22.85,168.68 -8.29,24.87 -20.88,45.08 -37.72,61.33 -16.86,16.25 -34.01,24.76 -51.52,25.18 -33.15,0.72 -74.11,-25.92 -122.19,-79.97 -89.4,-98.32 -136.51,-210.27 -141.7,-336.23 -2.92,-70.72 22.77,-107.64 76.3,-111.09 19.7,-1.27 34.34,1.32 44.67,7.7 9.97,6.76 29.41,26.33 58.71,59.02 25.07,29.43 41.83,47.04 49.55,53.6 8.07,6.19 16.78,9.15 27.18,8.48 6.32,-0.41 17.3,-5.35 32.21,-14.42 4.71,-3.12 10.23,-4.89 16.18,-5.27 17.84,-1.15 33.72,13.35 46.89,43.54 13.17,30.2 21.51,69.88 24.3,119.43z"/>
   <path class="fil13" d="M17869.53 9945.54c6.88,33.81 10.43,90.4 10.34,170.22 0.25,16.18 1.4,29.28 3.44,39.29 2.32,11.38 13.06,32.4 32.81,62.2 9.33,14.12 15.27,26.48 17.53,37.52 6.32,31.06 -8.42,66.91 -43.73,108.16 -28.22,33.15 -60.24,62.46 -96.9,87.78 -36.28,25.23 -69.17,41.02 -98.23,47.63 -28.33,6.46 -53.83,2.52 -76.58,-12.16 -22.38,-14.76 -36.6,-36.07 -42.37,-64.36 -4.78,-23.47 -3.25,-45.84 4.95,-67.2 8.55,-21.44 29.03,-57.16 61.7,-107.56 35.16,-53.14 50.01,-94.07 44.25,-122.36 -3.86,-18.98 -14.43,-33.53 -31.77,-44.03 -17.34,-10.5 -36.17,-13.43 -55.79,-8.96 -34.86,7.94 -61.08,47.12 -78.73,117.21 -30.58,126.11 -71.64,226.8 -123.19,302.08 -43.65,63.73 -104.18,104.23 -182.27,122.02 -98.79,22.49 -189.23,0.13 -272.11,-67.28 -71.8,-57.67 -118.11,-137.74 -138.99,-240.21 -5.34,-26.23 -10.31,-74.91 -15.43,-146.68 -5.65,-66.95 -9.1,-104.43 -10.78,-112.72 -1.76,-8.62 -4.96,-18.73 -9.45,-29.62 -6.48,-18.75 -10.81,-32.57 -12.64,-41.53 -6.47,-31.75 -3.17,-58.49 10.18,-80.66 20.52,-33.56 56.73,-68.52 108.25,-104.81 51.81,-36.7 97.73,-59.44 138.04,-68.62 65.37,-14.89 102.97,1.82 112.89,50.47 3.86,18.98 0.83,37.72 -9,56.57 -10.21,18.94 -38.33,60 -84.66,123.63 -25.62,34.7 -42.41,62.36 -50.3,83.3 -7.9,20.93 -10.14,41.66 -5.86,62.7 4.5,22.09 14.32,38.62 29.78,49.18 15.08,10.64 32.84,13.83 53.54,9.11 31.96,-7.28 55.67,-40.12 71.29,-97.84 33.79,-121.42 75.95,-212.98 125.76,-274.5 49.72,-61.87 113.44,-101.65 191.54,-119.43 84.26,-19.19 162.31,-10.97 233.31,24.13 101.42,50.19 164.54,136.18 189.2,257.3z"/>
   <path class="fil13" d="M17038.36 6120.88c32.82,69.78 59.57,144.16 80.43,222.65 17.54,64.42 23.13,113.95 16.79,148.58 -6.35,34.64 -25.36,59.86 -57.36,75.81 -20,9.97 -37.91,13.01 -53.92,9.58 -15.83,-3.91 -38.94,-17.16 -69.96,-40.24 -36.59,-26.2 -69.34,-35.44 -98.07,-27.41 -28.88,7.71 -133.46,53.97 -313.88,138.44 -173.57,84.21 -277.65,134.14 -313.07,149.84 -35.08,15.53 -70.55,28.49 -105.88,38.24 -103.72,29.7 -195.28,30.13 -274.9,2.57 -65.46,-22.81 -127.58,-63.03 -185.88,-120.5 -58.46,-57.79 -105.88,-125.41 -142.59,-203.47 -32.37,-68.83 -55.7,-142.94 -69.37,-221.88 -13.51,-78.62 -15.83,-151.81 -6.8,-219.25 7.39,-56.01 28.52,-108.24 63.49,-156.36 34.65,-47.96 78.47,-85.17 131.47,-111.6 65,-32.42 127.95,-39.42 189.05,-21.5 61.09,17.92 105.51,56.35 133.23,115.29 27.27,58 32.69,115.87 15.71,174.3 -17.3,58.59 -52.7,101.41 -106.04,128.02 -13.67,6.8 -38.47,14.45 -73.58,22.91 -7.26,2.06 -14.56,4.91 -22.56,8.89 -20.66,10.3 -34.36,25.8 -40.62,46.63 -6.27,20.81 -3.94,43.26 7.15,66.84 19.63,41.74 55.03,65.39 106.02,71.44 50.98,6.04 108.64,-6.98 172.31,-38.73l88.54 -45.34 238.25 -120.79c142.63,-78.21 226.02,-124.91 250.67,-140.74 24.31,-15.67 42.02,-33.16 52.78,-52.28 8.98,-15.89 13.42,-28.33 13.97,-37.65 0.37,-8.84 -2.44,-31.44 -9.08,-67.46 -3.72,-16.64 -0.7,-33.86 9.35,-51.86 10.05,-18 23.5,-31.4 40.51,-39.87 34.99,-17.46 69.62,-18.21 103.05,-2.23 33.77,15.8 71.01,50.34 112.18,103.76 45.65,59.46 85.35,124.63 118.61,195.36z"/>
   <polygon class="fil13" points="2107.29,14798.35 2128.88,14959.95 1275.72,15073.96 1254.12,14912.35 "/>
   <polygon class="fil13" points="2140.28,15179.05 2169.8,15325.92 1684.1,15779.8 2240.22,15676.29 2271.18,15830.34 1426.1,15987.62 1396.35,15839.62 1880.53,15387.2 1326.17,15490.37 1295.21,15336.34 "/>
   <path class="fil13" d="M2323.1 16476.25l-135.17 -89.21c45.95,-56.55 63.13,-106.14 51.57,-148.76 -5.65,-20.82 -15.84,-36.27 -30.4,-46.41 -14.79,-10.27 -29.1,-13.43 -42.99,-9.66 -13.88,3.77 -25.93,12 -35.71,24.79 -13.07,17.43 -38.04,65.8 -75.09,145.2 -34.14,74.07 -56.03,119.34 -65.64,135.82 -23.71,40.8 -48.39,71.92 -74.23,93.42 -26.09,21.35 -56.47,36.84 -91.36,46.31 -68.26,18.52 -130.76,10.21 -188.12,-24.94 -57.12,-35.03 -95.98,-90.52 -116.58,-166.51 -16.06,-59.2 -15.57,-114.6 1.44,-166.42 17.19,-51.86 52.45,-102 106.06,-150.09l116.37 111.5c-62.4,59.99 -86.55,116 -72.42,168.06 7.37,27.2 21.5,48 42.34,62.22 20.83,14.22 41.66,18.51 62.29,12.91 18.71,-5.08 35.72,-17.14 50.8,-36.34 14.94,-18.96 35.49,-57.66 61.33,-115.8 49.08,-110.61 90.12,-184.47 123.06,-221.76 32.95,-37.3 69.26,-61.43 109.17,-72.26 57.66,-15.65 112.99,-7.05 165.94,25.58 53.19,32.78 88.52,81.36 105.99,145.77 11.25,41.46 12.32,83.61 3.39,126.2 -9.09,42.83 -33.01,92.79 -72.04,150.38z"/>
   <polygon class="fil13" points="2461.65,16552.18 2603.47,17006.49 2448.98,17054.7 2402.19,16904.79 1735.03,17113.05 1685.38,16953.99 2352.54,16745.73 2307.17,16600.4 "/>
   <path class="fil13" d="M2640.4 17142.32l56.05 164.75c30.63,90.04 44.57,157.05 41.49,200.74 -3.02,43.87 -19.46,83.65 -48.8,119.59 -29.35,35.94 -69.44,62.66 -120.51,80.04 -53.53,18.21 -102.73,20.59 -147.36,7.28 -44.88,-13.43 -85.25,-42.75 -121.16,-88.15l-296.8 315.59 -57.66 -169.48 282.74 -300.46 -5.35 -15.71 -345.02 117.37 -52.5 -154.35 814.88 -277.2zm-266.41 262.83l16.74 49.18c16.99,49.93 35.06,81.99 54.55,96.47 19.43,14.29 44.21,16.41 74.46,6.11 17.79,-6.05 31.69,-16.05 41.77,-29.82 10.09,-13.78 15.31,-29.48 15.64,-47.1 0.58,-17.52 -6.36,-47.23 -20.57,-89.03l-14.61 -42.94 -167.97 57.14z"/>
   <path class="fil13" d="M2850.07 17770.26l68.43 147.6 -500.43 232c-43.1,19.99 -71.88,37.9 -86.16,53.69 -14.46,15.87 -22.9,34.83 -25.6,57.24 -2.52,22.33 1.84,45.84 13.16,70.26 12.07,26.04 28.31,45.56 49.08,58.83 20.59,13.36 41.67,19.31 63.49,17.91 21.65,-1.3 58.51,-14.03 110.41,-38.09l481.93 -223.42 68.43 147.61 -461.11 213.76c-77.92,36.13 -133.79,56.8 -168.03,61.97 -34.24,5.19 -71.08,1.98 -110.58,-9.81 -39.42,-11.62 -73.47,-30.52 -101.93,-56.59 -28.37,-25.9 -52.59,-60.26 -72.4,-102.99 -25.98,-56.03 -35.68,-110.86 -29.24,-164.25 6.54,-53.64 24.95,-98.17 55.41,-134.11 30.55,-35.75 91.74,-75.03 184.04,-117.82l461.1 -213.77z"/>
   <polygon class="fil13" points="3171.81,18465.84 3245.82,18611.11 2478.86,19001.83 2404.85,18856.56 "/>
   <polygon class="fil13" points="3326.4,18795.57 3403.45,18924.04 3098.05,19514.52 3587.27,19230.52 3668.09,19365.27 2924.68,19796.81 2847.02,19667.35 3151.47,19078.77 2663.8,19361.87 2582.98,19227.12 "/>
   <path class="fil13" d="M3766.36 19557.1l106.32 153.78c68.54,99.16 106.53,181.47 114.24,247 7.59,65.38 -6.69,133.13 -43.13,203.22 -36.27,69.98 -93.16,130.83 -170.56,182.72 -55.03,36.88 -111.6,62.05 -169.71,75.52 -58.13,13.46 -113.17,14.9 -164.9,4.62 -51.58,-10.4 -95.63,-29.55 -132.14,-57.46 -36.35,-28.02 -85.08,-86.23 -146.17,-174.6l-107.96 -156.17 714 -478.64zm-41.92 217.24l-450.48 301.98 41.61 60.18c41.07,59.4 77.86,97.55 110.63,114.75 32.76,17.22 71.9,22.96 117.26,17.36 45.37,-5.61 92.71,-24.82 142.09,-57.94 75.75,-50.78 120.57,-110.5 134.41,-178.89 12.44,-61.64 -9.34,-132.81 -65.08,-213.42l-30.44 -44.04z"/>
   <path class="fil13" d="M4522.58 20548.64c66.68,96.46 87.43,204.01 62.3,322.38 -25.03,118.53 -90.21,213 -195.29,283.44 -104.24,69.89 -216.08,94.79 -335.58,74.53 -119.4,-20.1 -213.02,-79.03 -280.58,-176.76 -70.85,-102.48 -92.52,-212.42 -65.19,-329.72 27.23,-117.45 91.79,-210.34 193.73,-278.68 68.11,-45.66 141.87,-71.93 221,-78.85 78.98,-6.81 154.39,6.15 225.97,38.82 71.71,32.84 129.61,81.17 173.63,144.84zm-134.57 87.42c-43.48,-62.88 -103.07,-100.33 -178.56,-112.33 -75.58,-12.14 -148.71,5.58 -219.65,53.13 -78.88,52.89 -122.76,121.7 -131.32,206.49 -6.95,66.09 8.32,126.09 45.88,180.4 42.38,61.3 101.88,97.9 178.24,109.76 76.47,12.02 148.71,-4.88 216.99,-50.65 67.96,-45.56 110.47,-105.8 127.42,-180.92 17.07,-74.94 4.03,-143.62 -39,-205.88z"/>
   <polygon class="fil13" points="5926.85,21933.16 6303.71,22184.3 6212.85,22316.51 5966.74,22152.5 5879.26,22279.78 6125.39,22443.79 6035.87,22574.03 5789.75,22410.01 5661.59,22596.49 5907.72,22760.51 5816.86,22892.72 5439.98,22641.58 "/>
   <path class="fil13" d="M6447.2 22270.06l163.72 90.29c105.56,58.21 176.26,114.96 212.37,170.18 35.93,55.14 53.34,122.16 51.96,201.13 -1.28,78.82 -25.08,158.65 -71.25,239.59 -32.82,57.55 -72.24,105.3 -118.25,143.26 -46.04,37.95 -94.67,63.76 -145.56,77.62 -50.8,13.68 -98.77,16.17 -143.89,7.46 -45.03,-8.88 -114.58,-39.27 -208.67,-91.15l-166.26 -91.68 425.83 -746.71zm59.31 213.15l-268.66 471.11 64.07 35.33c63.23,34.87 113.18,52.62 150.18,53.43 36.99,0.81 74.59,-11.5 112.7,-36.73 38.11,-25.24 71.93,-63.55 101.38,-115.2 45.17,-79.21 58.68,-152.65 40.59,-220.03 -16.34,-60.73 -67.56,-114.72 -153.38,-162.05l-46.87 -25.85z"/>
   <path class="fil13" d="M7151.55 22638.28l147.75 56.78 -206.88 516.18c-17.82,44.46 -26.66,77.38 -26.46,98.63 0.13,21.42 6.67,40.82 19.65,58.63 13.06,17.64 31.86,31.28 56.3,40.67 26.07,10.01 50.8,12.46 74.65,7.3 23.77,-4.98 42.95,-15.56 57.79,-31.87 14.76,-16.14 32.91,-51.05 54.36,-104.58l199.23 -497.11 147.75 56.78 -190.63 475.62c-32.22,80.38 -58.8,134.29 -80.08,162.02 -21.27,27.73 -50.02,51.31 -86.4,70.68 -36.21,19.43 -73.4,29.93 -111.32,31.39 -37.75,1.53 -78.13,-5.87 -120.91,-22.3 -56.08,-21.55 -99.63,-53.68 -130.53,-96.12 -31.01,-42.69 -47.37,-87.24 -49.32,-134.16 -1.75,-46.84 16.28,-117.71 54.44,-212.91l190.62 -475.62z"/>
   <path class="fil13" d="M8528.03 23213.39l-131.54 84.67c-56.46,-95.19 -130.66,-152.03 -222.97,-170.58 -77.78,-15.63 -149.41,-1.34 -214.47,42.77 -65.27,44.07 -106.46,106.2 -123.82,186.56 -12.08,55.97 -10.93,108.1 3.32,156.14 14.21,48.23 40.25,89.08 77.94,122.5 37.88,33.46 83.18,55.4 136.04,66.02 44.93,9.03 87.93,8.72 128.87,-1.17 41.12,-9.84 88.91,-33.21 143.32,-69.89l80.63 134.65c-73.13,48.59 -139.05,79.3 -197.52,91.96 -58.53,12.86 -122.21,12.27 -190.75,-1.5 -126.48,-25.43 -221.18,-87.61 -283.9,-186.7 -62.74,-98.91 -80,-213.28 -52.08,-342.59 18.12,-83.87 52.47,-154.49 103.35,-212.24 50.69,-57.78 114.45,-99.5 191.54,-125.33 76.88,-25.85 154.8,-30.95 233.89,-15.04 67.02,13.47 128.42,41.07 184.4,82.85 55.79,41.75 100.43,94.06 133.74,156.92z"/>
   <path class="fil13" d="M8961.58 23114.78l152.51 11.65 233.76 879.68 -157.48 -12.04 -47.12 -181.23 -326.05 -24.92 -78.43 171.65 -157.48 -12.03 380.29 -832.76zm57.21 233.42l-132.72 286.54 215.09 16.43 -82.37 -302.96z"/>
   <path class="fil13" d="M10396.86 23078.71l182.64 -39.98c117.75,-25.77 208.33,-29.66 271.88,-11.91 63.36,17.79 120.63,56.73 171.63,117.04 50.97,60.12 85.67,135.86 104.28,227.16 13.24,64.91 15.06,126.8 5.45,185.69 -9.6,58.88 -29.18,110.34 -58.34,154.29 -29.2,43.78 -63.63,77.25 -103.31,100.42 -39.72,22.99 -112.07,45.98 -217.03,68.95l-185.46 40.59 -171.74 -842.26zm185.06 121.25l108.35 531.4 71.49 -15.65c70.53,-15.44 119.79,-35 148.16,-58.78 28.36,-23.76 48.53,-57.8 60.57,-101.88 12.03,-44.11 12.22,-95.2 0.34,-153.46 -18.22,-89.34 -56.45,-153.48 -114.45,-192.26 -52.31,-34.91 -126.42,-41.77 -222.16,-20.82l-52.29 11.45z"/>
   <polygon class="fil13" points="9546.59,23146.43 9696.04,23135.99 10083.88,23675.89 10052.55,23111.09 10209.28,23100.14 10256.9,23958.41 10106.31,23968.93 9719.71,23430.74 9750.95,23993.75 9594.2,24004.7 "/>
   <path class="fil13" d="M11616.28 22709.76c115.66,-19.36 221.82,7.57 318.29,80.64 96.65,73.04 154.44,172.2 173.54,297.25 18.94,124.07 -6.06,235.87 -75.19,335.44 -68.95,99.54 -162.08,159.22 -279.25,178.83 -122.88,20.56 -231.62,-6.56 -326.17,-81.15 -94.74,-74.57 -151.38,-172.5 -169.89,-293.82 -12.38,-81.07 -4.8,-159 22.57,-233.57 27.4,-74.37 71.19,-137.13 131.19,-188.03 60.19,-50.94 128.56,-82.81 204.91,-95.58zm21.93 158.96c-75.39,12.62 -134.64,50.65 -177.58,113.86 -43.12,63.26 -58.16,136.98 -45.28,221.39 14.34,93.9 57.98,162.86 131.08,206.66 56.87,34.38 117.66,46.06 182.79,35.15 73.5,-12.3 131.92,-50.6 175.12,-114.67 43.39,-64.1 58.79,-136.67 46.39,-217.94 -12.35,-80.87 -48.81,-144.96 -109.59,-192.25 -60.59,-47.31 -128.3,-64.7 -202.94,-52.21z"/>
   <polygon class="fil13" points="12977.87,21990.97 13332.72,21709.57 13430.59,21836.68 13198.85,22020.45 13293.07,22142.81 13524.81,21959.05 13621.21,22084.27 13389.48,22268.03 13527.52,22447.33 13759.26,22263.55 13857.13,22390.66 13502.27,22672.06 "/>
   <polygon class="fil13" points="14239.7,20851.8 14508.03,20540.09 14626.31,20644.89 14460.5,20837.52 14577.88,20941.53 14743.69,20748.9 14861.97,20853.69 14696.16,21046.33 14985.59,21302.77 14883.09,21421.85 "/>
   <path class="fil13" d="M14985.96 19969.65c104.11,-52.92 213.42,-59.78 327.67,-20.68 114.42,39.01 199.89,114.11 256.5,225.03 56.17,110.05 66.74,221.88 31.56,335.61 -35.01,113.64 -105.29,197.4 -210.77,251.01 -110.6,56.21 -222.4,63.68 -335.31,22.57 -113.08,-41.02 -197.07,-115.31 -251.98,-222.92 -36.7,-71.91 -53.44,-146.9 -50.31,-224.72 3.21,-77.65 25.59,-149.39 67.05,-214.97 41.62,-65.66 96.88,-116 165.6,-150.93zm69.74 141.7c-67.87,34.49 -112.56,87.82 -133.98,159.75 -21.59,72.01 -13.25,145.32 24.97,220.2 42.5,83.27 105.22,134.46 188.25,153.3 64.68,14.94 126.12,7.5 184.75,-22.29 66.16,-33.62 109.98,-86.96 131.39,-159.76 21.57,-72.88 13.94,-145.23 -22.85,-217.32 -36.6,-71.73 -91.01,-120.53 -163.38,-146.32 -72.2,-25.88 -141.96,-21.7 -209.15,12.44z"/>
   <path class="fil13" d="M15198.81 19605.77l86.91 -143.43c47.51,-78.38 88.54,-129.92 123.08,-154.18 34.64,-24.43 74.82,-36.08 120.43,-35.48 45.6,0.6 91.19,15.05 136.86,43.63 47.87,29.96 81.17,66.24 99.84,108.58 18.74,42.62 22.72,91.45 11.89,146.68l425.41 35.23 -89.42 147.54 -405.13 -33.66 -8.29 13.67 308.53 193.07 -81.44 134.38 -728.66 -456.01zm366.61 44.09l25.95 -42.81c26.35,-43.48 38.66,-76.88 36.96,-100.64 -1.78,-23.6 -16.08,-43.92 -43.14,-60.85 -15.9,-9.95 -32.27,-14.51 -48.99,-13.85 -16.74,0.66 -31.78,6.24 -45.14,16.73 -13.43,10.22 -31.14,33.66 -53.19,70.06l-22.65 37.38 150.2 93.99z"/>
   <polygon class="fil13" points="15575.97,18959.87 15644.37,18822.91 16263.19,18925.66 15817.36,18476.48 15885.58,18339.87 16711.15,18610.49 16643.1,18746.76 16121.32,18576.51 16525.08,18983.11 16462.79,19107.83 15902.46,19014.76 16344.34,19345.05 16275.51,19482.86 "/>
   <path class="fil13" d="M16093.68 17859.14l56.93 -147.93 912.43 20.97 -58.79 152.77 -187.69 -5.36 -121.72 316.27 140.81 127.13 -58.8 152.77 -683.18 -616.63zm240.67 10.35l234.5 214.03 80.3 -208.64 -314.8 -5.39z"/>
   <polygon class="fil13" points="16314.02,17283.01 16356.62,17139.4 16998.23,16965.41 16458.27,16796.77 16502.95,16646.14 17323.47,16902.39 17280.53,17047.12 16640.97,17220.53 17179.22,17388.63 17134.52,17539.26 "/>
   <path class="fil13" d="M16570.05 16438.33l40.14 -182.6c25.87,-117.73 60.24,-201.63 102.96,-251.92 42.68,-50.09 101.99,-85.8 178.13,-106.89 75.94,-21.12 159.24,-20.94 249.95,0.37 64.49,15.15 121.47,39.4 170.92,72.77 49.45,33.37 87.99,72.69 115.72,117.55 27.53,44.84 43.52,90.13 47.96,135.87 4.27,45.7 -5.15,121.02 -28.21,225.96l-40.76 185.42 -836.82 -196.52zm187.57 -117.33l527.97 124 15.71 -71.47c15.5,-70.52 18.35,-123.45 8.62,-159.16 -9.71,-35.7 -32.18,-68.27 -67.19,-97.66 -35,-29.39 -81.34,-50.94 -139.23,-64.53 -88.77,-20.85 -163.02,-12.97 -222.51,23.48 -53.6,32.91 -90.84,97.34 -111.89,193.06l-11.49 52.28z"/>
   <path class="fil13" d="M16855.3 15096.81c56.76,-102.61 143.86,-169.01 261.06,-199.13 117.3,-30.29 230.9,-13.9 340.71,48.9 108.94,62.3 180.95,151.41 215.95,267.45 35.08,115.89 23.92,225.95 -33.57,329.91 -60.29,109.02 -149.14,177.32 -266.35,204.99 -117.31,27.84 -229.23,11.3 -335.76,-49.62 -71.19,-40.71 -127.5,-95.11 -168.9,-162.92 -41.21,-67.7 -63.13,-141.01 -65.69,-219.67 -2.47,-78.81 15.09,-152.17 52.55,-219.92zm138.15 81.67c-37,66.89 -44.05,136.94 -21.23,209.87 22.72,73.11 71.11,130.72 145.24,173.12 82.45,47.15 163.59,55.85 243.35,25.83 62.28,-23.15 109.23,-63.51 141.19,-121.31 36.06,-65.21 42.39,-134.78 19.07,-208.44 -23.23,-73.83 -70.48,-131.03 -141.84,-171.84 -71.02,-40.62 -143.88,-51.91 -218.71,-33.7 -74.72,18.04 -130.45,60.25 -167.06,126.48z"/>
   <path class="fil4" d="M10847.51 21086.72c20.22,19.45 20.84,51.61 1.4,71.83 -19.45,20.21 -51.61,20.84 -71.83,1.4 -376.5,-362.38 -766.53,-681.61 -1175.26,-941.03 -407.68,-258.75 -833.51,-457.72 -1282.5,-580.23 -27.02,-7.36 -42.97,-35.25 -35.61,-62.27 7.36,-27.03 35.25,-42.98 62.27,-35.61 460.04,125.54 895.01,328.55 1310.36,592.17 414.29,262.94 809.59,586.5 1191.17,953.76z"/>
  </g>
 </g>
</svg>
